<?xml version="1.0" encoding="UTF-8" standalone="no" ?>
<!DOCTYPE svg PUBLIC "-//W3C//DTD SVG 1.1//EN" "http://www.w3.org/Graphics/SVG/1.1/DTD/svg11.dtd">
<svg xmlns="http://www.w3.org/2000/svg" xmlns:xlink="http://www.w3.org/1999/xlink" version="1.1" width="1080" height="1080" viewBox="0 0 1080 1080" xml:space="preserve">
<desc>Created with Fabric.js 4.2.0</desc>
<defs>
</defs>
<g transform="matrix(1 0 0 1 540 540)" id="b90445dc-053e-48b0-91e1-b8b61f9a4c6b"  >
<rect style="stroke: none; stroke-width: 1; stroke-dasharray: none; stroke-linecap: butt; stroke-dashoffset: 0; stroke-linejoin: miter; stroke-miterlimit: 4; fill: rgb(255,255,255); fill-rule: nonzero; opacity: 1;" vector-effect="non-scaling-stroke"  x="-540" y="-540" rx="0" ry="0" width="1080" height="1080" />
</g>
<g transform="matrix(1 0 0 1 540 540)" id="26a380a5-7dbe-485e-b9be-270a2a6a4ec7"  >
</g>
<g transform="matrix(32.46 0 0 32.46 540 540)" id="69776494-898e-4b58-9ecb-a6e9203195d5"  >
<path style="stroke: rgb(0,0,0); stroke-width: 0; stroke-dasharray: none; stroke-linecap: butt; stroke-dashoffset: 0; stroke-linejoin: miter; stroke-miterlimit: 4; fill: rgb(134,134,139); fill-rule: nonzero; opacity: 1;" vector-effect="non-scaling-stroke"  transform=" translate(-7.49, -65.88)" d="M 13.98 71.593 L 10.48 68.093 C 12.311139905229888 65.85037927047551 12.063235104931959 62.56607730954836 9.916206986039239 60.623735592521655 C 7.769178867146518 58.68139387549494 4.476537429705687 58.76268671040812 2.4279766747427445 60.80861435386083 C 0.3794159197798024 62.85454199731354 0.2938882452558129 66.14707615468399 2.2334669059162238 68.29660068539516 C 4.173045566576635 70.44612521610632 7.457025962502885 70.69825399219644 9.701999999999998 68.87 L 13.202 72.37 C 13.41683876768418 72.58483876768419 13.765161232315824 72.58483876768418 13.980000000000002 72.37 C 14.194838767684182 72.15516123231582 14.19483876768418 71.80683876768418 13.98 71.592 Z M 1.959 64.668 C 1.9595522546065547 62.28281241820848 3.8934788950000097 60.34963190301781 6.278666512313251 60.35000005144629 C 8.663854129626491 60.350368199874765 10.597183913623562 62.284145617533326 10.596999871375354 64.66933325615761 C 10.596815829127147 67.05452089478192 8.663187645724689 68.98799993606684 6.278000000000002 68.988 C 3.8932061310782404 68.98579396248452 1.960653937945545 67.0527943157299 1.9589999999999996 64.668 Z" stroke-linecap="round" />
</g>
</svg>